<?xml version="1.0" encoding="UTF-8" standalone="no"?>
<!-- Created with Inkscape (http://www.inkscape.org/) -->

<svg
   version="1.1"
   id="svg1"
   width="1024"
   height="1024"
   viewBox="0 0 1024 1024"
   xmlns="http://www.w3.org/2000/svg"
   xmlns:svg="http://www.w3.org/2000/svg">
  <defs
     id="defs1" />
  <g
     id="g1"
     transform="translate(1.0942076,114.2541)">
    <path
       id="path31"
       style="fill:#6a48e7"
       d="m 503.5625,97.722656 c -17.48234,0.703383 -20.07396,1.007332 -32,3.738284 -45.43633,10.40448 -84.53213,36.87509 -113.41211,76.79101 -11.72276,16.20238 -20.09488,33.81788 -25.08789,52.78516 -2.58007,9.80107 -2.94905,13.85675 -5.14648,56.47461 l -0.65235,12.63672 -4.09961,1.20898 c -13.92958,4.1092 -21.88387,12.95609 -26.15625,29.08985 -2.08988,7.89201 -2.34097,34.0656 -0.44922,46.92773 0.6876,4.675 1.37297,9.4 1.52149,10.5 2.17196,16.08585 12.95891,40.97649 21.42969,49.44727 1.39012,1.39012 1.82206,6.27314 2.83789,32.0957 1.7881,45.45361 6.01666,71.39939 16.5332,101.45703 21.58503,61.69285 71.15685,108.39501 129.9375,122.41406 9.4306,2.24918 14.00565,2.99856 25.24414,4.13477 11.13529,1.12579 35.84912,0.26819 47.36523,-1.64453 33.87037,-5.62557 63.74868,-20.36001 90.3418,-44.54883 32.69022,-29.73467 55.70854,-76.14974 63.65235,-128.35547 3.59291,-23.61228 4.28004,-31.74531 4.86328,-57.5 l 0.57812,-25.5 3.30469,-3.87695 c 6.88547,-8.07866 15.06274,-26.60843 18.36914,-41.62305 3.98609,-18.10115 5.24204,-47.49935 2.61328,-61.16211 -3.67957,-19.12425 -9.88701,-26.34142 -26.50586,-30.81641 -2.73196,-0.73564 -3.93105,-1.59892 -3.87695,-2.79296 0.14526,-3.20513 -1.22728,-40.66269 -1.76758,-48.22852 -1.71002,-23.94586 -12.19324,-51.47285 -28.17969,-74 C 656.648,165.85907 634.18823,143.14141 622.80078,134.87305 586.40302,108.44485 546.45203,95.997042 503.5625,97.722656 Z m 2.6582,15.912114 c 3.40546,-0.0536 6.84844,0.006 10.3418,0.17382 16.5681,0.79664 23.49149,1.88169 37,5.79493 65.80623,19.06318 115.66586,70.96282 121.87305,126.86132 0.57473,5.17574 1.34393,18.79698 1.71093,30.26954 l 0.66797,20.85937 -3.87695,-0.57813 c -10.60456,-1.58129 -50.88354,-2.8692 -72.25,-2.31054 -34.44075,0.90052 -48.17645,3.26542 -59.625,10.26953 -3.3,2.0189 -7.125,4.28209 -8.5,5.0293 -1.87854,1.02085 -7.59596,1.35515 -23,1.34375 l -20.5,-0.0156 -6.94531,-4.49805 c -15.03167,-9.73701 -28.96346,-11.84343 -78.05469,-11.80273 -19.8,0.0164 -41.40025,0.51259 -48,1.10352 -6.59975,0.5909 -12.20204,0.87218 -12.44922,0.625 -0.24718,-0.24718 0.0929,-12.09845 0.75586,-26.33594 1.06403,-22.85102 1.54672,-27.23797 4.11524,-37.40821 5.92342,-23.45417 17.35553,-43.43804 35.94335,-62.83593 16.55727,-17.27884 31.47845,-28.56821 49.97071,-37.81055 24.96129,-12.47553 46.98405,-18.35898 70.82226,-18.73437 z m 95.87696,194.83789 c 20.93783,-0.33905 44.14301,0.99307 52.16015,3.39257 3.18379,0.95289 6.03863,2.60966 7.37305,4.28125 2.08291,2.60919 2.14896,3.35787 1.56055,17.22852 -1.35904,32.03693 -8.35101,48.56392 -23.40625,55.32031 -4.55656,2.04486 -8.482,2.80971 -18.64258,3.63477 -15.8599,1.28787 -21.75577,1.2073 -32.39063,-0.44141 -18.62328,-2.88715 -28.30815,-9.43924 -36.03515,-24.3789 -4.12173,-7.96912 -7.21587,-17.95533 -9.09375,-29.34961 -2.14495,-13.01474 2.33975,-21.28474 13.39453,-24.69922 7.44222,-2.29866 10.18476,-2.73566 25.54492,-4.07032 5.82926,-0.50651 12.55588,-0.80495 19.53516,-0.91796 z m -184.03516,0.23437 c 44.62541,0.97667 56.05387,4.23401 60.12109,17.13672 1.56476,4.96426 1.56538,5.90305 -0.008,14.50195 -5.18112,28.31951 -15.13965,43.42873 -32.33008,49.05469 -8.63046,2.8241 -19.86771,3.64399 -38.7832,2.82813 -17.16487,-0.74035 -24.52707,-2.46754 -30.74609,-7.21094 -8.07285,-6.15737 -12.47504,-15.60847 -15.19532,-32.625 -1.71949,-10.75622 -2.04428,-33.24054 -0.52148,-36.08594 3.12963,-5.84776 22.20641,-8.37122 57.46289,-7.59961 z m 284.26953,15.85742 c 3.97766,0.51916 5.08351,3.01185 6.32227,10.14649 2.68678,15.47448 0.45517,45.64418 -4.69141,63.41797 -2.94926,10.18533 -10.32703,24.73936 -15.54687,30.67187 -2.99758,3.40684 -3.92208,5.55992 -5.20313,12.10938 -1.81969,9.30322 -1.80787,9.25208 -4.57031,20.96484 -5.97832,25.34817 -14.94266,43.81922 -26.20508,53.99414 -4.965,4.48558 -14.69834,9.14606 -20.875,9.99609 l -4.5,0.6211 -1.76562,-5.62891 c -4.51012,-14.37695 -14.39867,-30.58971 -25.93946,-42.52734 -16.14698,-16.70219 -42.87163,-30.99993 -60.9414,-32.60547 -7.41489,-0.65883 -18.17384,0.88202 -23.33204,3.3418 -3.24075,1.5454 -3.74765,1.49926 -11.41601,-1.03516 -7.01779,-2.31944 -9.25284,-2.6019 -17.81445,-2.25391 -6.42443,0.26112 -11.76044,1.0982 -15.51758,2.43555 -9.26484,3.29779 -23.59677,10.91487 -33.49219,17.80078 -17.90149,12.4571 -33.87891,34.41292 -39.75586,54.62891 -1.82237,6.26876 -2.17988,6.43769 -9.79101,4.64453 -17.53642,-4.13153 -30.96627,-20.12062 -39.60938,-47.1582 -3.75843,-11.75719 -4.56047,-15.08511 -8.21484,-34.0625 -1.95209,-10.13734 -2.42713,-11.28595 -7.64063,-18.5 -13.94129,-19.2909 -18.56415,-37.14823 -18.69141,-72.19141 -0.0724,-19.95086 0.07,-21.75219 1.97266,-25 1.87046,-3.19287 2.5029,-3.52648 7.20508,-3.80078 6.70289,-0.39103 12.90081,1.3275 15.70703,4.35547 1.45765,1.57283 2.85093,5.3076 3.98242,10.68164 2.88994,13.7259 6.54214,27.94338 8.67383,33.76367 6.29099,17.17674 17.91741,27.79667 33.38086,30.49219 8.67155,1.51159 30.40066,2.65448 40.5,2.1289 23.76907,-1.23698 35.35765,-5.16702 45.55273,-15.44531 9.13578,-9.21035 15.78934,-22.99047 21.92383,-45.4082 2.50287,-9.14646 7.11152,-12.37723 18.09961,-12.68946 8.31715,-0.23632 14.53,1.84025 17.30469,5.78516 1.01983,1.44994 3.27943,7.81172 5.02148,14.13672 6.44938,23.41623 17.60292,40.03598 31.44336,46.84961 10.6202,5.2283 19.99332,6.56704 45.1543,6.44727 31.29835,-0.149 40.78394,-2.53086 51.14844,-12.8418 8.28161,-8.23881 13.05154,-19.53144 18.37695,-43.51172 1.76411,-7.94375 3.79401,-15.87598 4.51172,-17.62695 1.70089,-4.14955 6.31515,-6.45418 14.18555,-7.08594 2.07505,-0.16657 3.72099,-0.21407 5.04687,-0.041 z M 525.44922,496.72461 c 9.49362,-0.45796 21.52427,2.08486 35.78906,7.58594 15.19852,5.86117 24.63041,13.64444 27.79688,22.9375 3.22426,9.46269 0.92683,24.49569 -5.17969,33.90429 -3.86184,5.95012 -8.93736,8.22271 -18.35938,8.22071 -10.73266,-0.002 -13.46001,-1.64501 -18.43359,-11.10743 -2.2,-4.18558 -5.18255,-9.14883 -6.62891,-11.02734 -6.2462,-8.11248 -20.89751,-11.99031 -37.58398,-9.94922 -14.84311,1.81561 -19.62815,5.25954 -26.74414,19.25586 -2.80154,5.51031 -5.35263,9.09167 -7.53711,10.58008 -2.80811,1.91332 -4.58935,2.24424 -11.9043,2.21094 -9.76713,-0.0444 -13.53397,-1.30804 -17.32422,-5.8125 -6.49227,-7.71562 -9.69093,-25.86981 -6.33789,-35.96485 3.41324,-10.27631 13.52642,-18.20734 31.3086,-24.55273 17.23915,-6.15162 30.69473,-7.77352 40.00195,-4.82227 6.23041,1.97563 6.26959,1.97492 12.5,0 2.58981,-0.82092 5.47218,-1.30633 8.63672,-1.45898 z" />
  </g>
</svg>
