<?xml version="1.0" encoding="UTF-8" standalone="no"?>
<!-- Created with Inkscape (http://www.inkscape.org/) -->

<svg
   version="1.1"
   id="svg1"
   width="1024"
   height="1024"
   viewBox="0 0 1024 1024"
   xmlns="http://www.w3.org/2000/svg"
   xmlns:svg="http://www.w3.org/2000/svg">
  <defs
     id="defs1" />
  <g
     id="g1">
    <path
       style="fill:#6a48e7"
       d="m 109.71266,901.91066 c -6.31361,-1.5274 -9.90922,-3.98408 -12.645836,-8.64019 -1.736682,-2.95482 -2.061125,-5.77551 -2.5,-21.7349 L 94.0625,853.19613 91.331237,850.84965 c -1.504258,-1.29234 -4.761282,-2.6509 -7.25,-3.02411 L 79.5625,847.14791 v -5.88645 c 0,-6.08825 -0.08385,-5.9789 4.504774,-5.87503 1.620281,0.0367 7.994888,-3.30216 9.110938,-4.77204 0.956423,-1.25965 1.329453,-5.93192 1.352485,-16.94017 0.06037,-28.85674 2.882215,-33.09528 22.782203,-34.21992 l 10.2504,-0.5793 -4e-4,5.75 -4e-4,5.75 h -6.4349 c -12.63839,0 -13.55494,1.54473 -13.58706,22.89922 -0.0244,16.24995 -1.04539,20.0835 -6.78385,25.47264 l -3.058007,2.87185 2.967827,2.49726 c 5.5481,4.66842 6.25251,7.26837 6.85966,25.3188 0.72745,21.62667 0.8998,21.94023 12.05938,21.94023 h 7.97695 v 6 6 l -6.25,-0.0851 c -3.4375,-0.0468 -8.65743,-0.66745 -11.59984,-1.37929 z M 895.5625,897.375 v -6 h 6.56574 c 11.83344,0 13.43149,-2.58233 13.43984,-21.71788 0.007,-15.38456 1.02511,-19.5481 5.99775,-24.52075 l 3.78372,-3.78372 -2.20804,-1.73882 c -6.12635,-4.82449 -7.45153,-9.69618 -7.63607,-28.07221 C 915.3026,791.34323 914.63621,790.375 900.9375,790.375 h -5.375 v -5.812 -5.81201 l 8.25,0.38288 c 11.0553,0.51307 15.51502,1.80615 19.30681,5.59794 4.31581,4.31581 5.44319,10.32595 5.44319,29.0181 0,14.55109 0.10684,15.37654 2.25,17.38416 2.65743,2.48937 6.91771,4.24093 10.3151,4.24093 2.30653,0 2.4349,0.31309 2.4349,5.93873 v 5.93872 l -4.59234,0.68867 c -2.52578,0.37876 -5.78828,1.71609 -7.25,2.97184 l -2.65766,2.28317 -0.50432,18.33944 c -0.56002,20.36471 -1.34634,23.13742 -7.79375,27.48233 -3.44539,2.32185 -13.03698,4.3571 -20.53384,4.3571 H 895.5625 Z M 343.78562,881.25641 c -11.32373,-5.60514 -13.49238,-25.16974 -3.73918,-33.73317 5.05733,-4.44039 10.26724,-5.65017 24.26606,-5.63474 11.95594,0.0132 12.25,-0.0393 12.25,-2.1849 0,-11.81185 -14.41959,-14.8699 -33,-6.9985 -1.09461,0.46372 -2.09728,-0.7254 -3.71006,-4.39998 l -2.21007,-5.03543 4.28346,-1.83611 c 7.34057,-3.14653 14.85838,-4.33122 24.73771,-3.89827 11.73812,0.51441 17.04035,3.02577 20.57874,9.74697 2.21033,4.19854 2.32022,5.38786 2.32022,25.11043 0,11.38673 -0.28617,22.79095 -0.63592,25.34272 -0.63046,4.59969 -0.66879,4.63957 -4.45986,4.63957 -3.59485,0 -3.89573,-0.23963 -5.02237,-4 -0.65913,-2.2 -1.3483,-4 -1.53148,-4 -0.18319,0 -2.37255,1.55677 -4.86525,3.45949 -5.50202,4.1998 -9.93798,5.52785 -18.48512,5.53414 -4.6138,0.003 -7.74108,-0.60953 -10.77688,-2.11222 z m 26.84757,-11.63141 5.42931,-2.75 v -7.5 -7.5 l -10,0.0926 c -14.04519,0.13009 -18.5,2.68718 -18.5,10.61913 0,3.84368 2.2536,7.54429 5.357,8.79667 4.54936,1.83589 12.09661,1.08668 17.71369,-1.75842 z m 56.50331,12.26344 c -2.1593,-0.76933 -5.52366,-2.99643 -7.47635,-4.94912 l -3.55034,-3.55035 -1.02366,4.24302 -1.02365,4.24301 -5.25,0.30226 -5.25,0.30226 V 837.92726 793.375 h 7 7 v 15.55089 15.55089 l 3.25,-2.46192 c 10.67256,-8.0846 25.98802,-6.11891 33.17957,4.25851 8.36777,12.0747 8.35997,34.63012 -0.0162,46.79193 -6.20491,9.00926 -16.66532,12.448 -26.83937,8.82314 z m 12.52812,-12.78658 c 4.65288,-3.11273 6.88588,-9.78503 6.76925,-20.22686 -0.10905,-9.76328 -2.31351,-15.55436 -7.05334,-18.529 -4.59341,-2.88275 -12.22024,-2.29414 -17.75784,1.37047 l -4.06019,2.68691 v 15.89636 15.89636 l 5.19634,2.58945 c 6.57858,3.27825 12.31777,3.38563 16.90578,0.31631 z m 84.12803,12.72274 c -4.34084,-1.16866 -10.65889,-3.77966 -12.04972,-4.97968 -0.17576,-0.15165 0.67708,-2.59249 1.8952,-5.42409 1.68886,-3.92585 2.59584,-4.99308 3.81957,-4.49441 9.77535,3.98349 13.18662,4.72678 22.1048,4.81646 7.20724,0.0725 10.26306,-0.31759 12.6617,-1.6162 4.71379,-2.55201 7.3383,-6.4287 7.3383,-10.83949 0,-8.02122 -3.22168,-10.89845 -18.88972,-16.87016 -16.79712,-6.40204 -22.8866,-10.97483 -25.06627,-18.82308 -2.30633,-8.30431 -0.27048,-15.70751 6.08396,-22.12379 4.30602,-4.34792 9.65878,-6.7107 18.51682,-8.17357 5.89659,-0.97381 8.3696,-0.89719 15.10732,0.46805 9.82009,1.98981 15.56454,4.26823 14.88209,5.9027 -0.27734,0.66421 -1.05472,2.89516 -1.72751,4.95766 -0.6728,2.0625 -1.56651,3.75 -1.98602,3.75 -0.41952,0 -4.73579,-0.94653 -9.59171,-2.10341 -13.32396,-3.1743 -22.47835,-1.37595 -25.81203,5.07068 -3.9209,7.58217 0.14778,12.76944 14.11711,17.99833 22.8797,8.56414 28.74896,14.46202 28.58738,28.72678 -0.12883,11.37403 -6.07112,19.29734 -17.47982,23.30717 -6.91173,2.42928 -24.26748,2.66953 -32.51145,0.45005 z m 89.8593,0.46557 c -5.77783,-1.13406 -11.49279,-5.18189 -13.76584,-9.75016 -1.54704,-3.10917 -1.8702,-6.73613 -2.1308,-23.91501 l -0.30719,-20.25 h -8.94281 -8.94281 v -5.337 -5.337 l 8.75,0.087 8.75,0.087 0.28436,-10.19352 c 0.3162,-11.33502 -0.17764,-10.64299 8.46564,-11.86306 l 4.75,-0.67051 v 11.55346 11.55345 l 12.25,-0.18991 12.25,-0.18991 0.30226,5.25 0.30226,5.25 H 623.11476 610.5625 v 18.36514 c 0,17.01078 0.15145,18.55768 2.05362,20.9759 2.80397,3.56467 8.84999,5.02403 17.56541,4.23984 l 7.11904,-0.64055 0.63096,3.15484 c 1.40513,7.02562 1.10069,7.56983 -4.61903,8.25685 -6.77996,0.81437 -14.11637,0.65136 -19.66055,-0.43685 z m 49.71756,-0.41355 c -5.50546,-2.02367 -9.74946,-5.5193 -12.14284,-10.00162 -1.98732,-3.72185 -2.16035,-5.75582 -2.48828,-29.25 l -0.35244,-25.25 h 7.02285 7.02286 l 0.31542,24.0837 0.31542,24.0837 3.24229,2.89531 c 1.78325,1.59242 4.45668,3.20011 5.94095,3.57264 3.8107,0.95642 11.19496,-1.23417 15.31676,-4.54383 l 3.5,-2.81037 0.2681,-23.64057 0.2681,-23.64058 h 6.9819 6.9819 v 32.5 32.5 h -5.88129 -5.88128 l -1.12107,-4.45219 -1.12108,-4.45218 -2.49866,2.49866 c -6.32474,6.32474 -17.53873,8.9034 -25.68961,5.90733 z m 71.45945,-0.0991 c -5.52892,-2.035 -11.81134,-9.19697 -13.85835,-15.79857 -4.05992,-13.09325 -2.00475,-32.50774 4.27984,-40.43024 3.19695,-4.03014 10.07971,-7.93719 15.54464,-8.82403 5.34982,-0.86815 13.81188,2.02029 18.08953,6.17468 l 3.67788,3.57192 V 809.92314 793.375 l 6.25,-2.9e-4 6.25,-2.9e-4 -0.27028,44.50029 -0.27027,44.50029 h -4.98356 -4.98357 l -1.18656,-4.43642 -1.18656,-4.43642 -3.3231,2.91772 c -7.20699,6.32782 -16.04186,8.29764 -24.02964,5.35764 z m 19.23354,-12.29256 c 2.2,-1.01537 5.02565,-2.96099 6.27923,-4.3236 2.17594,-2.36522 2.26657,-3.10589 2,-16.34547 l -0.27923,-13.86799 -4.42264,-2.96849 c -6.15477,-4.13111 -13.25103,-4.6831 -18.07736,-1.40615 -1.925,1.30702 -4.15511,3.7096 -4.95581,5.33907 -1.7676,3.5972 -2.52852,14.43065 -1.55875,22.19244 0.59835,4.78903 1.31926,6.31023 4.49594,9.48691 3.23526,3.23526 4.41604,3.78014 8.15097,3.76136 2.40221,-0.0121 6.16765,-0.85272 8.36765,-1.86808 z m 104.5,12.95491 c -9.49694,-2.8993 -16.09934,-9.25241 -18.6408,-17.93694 -2.35486,-8.04689 -1.51679,-24.88138 1.58913,-31.92143 4.71067,-10.67745 14.33825,-15.75718 28.45972,-15.01599 18.80236,0.98687 26.476,11.86985 25.34364,35.94312 -0.42618,9.06023 -0.89467,11.35842 -3.16627,15.53209 -3.23431,5.9425 -8.37991,10.22124 -15.07712,12.53712 -5.16554,1.78624 -14.11555,2.20309 -18.5083,0.86203 z m 17.76344,-12.73383 c 4.57567,-3.40996 6.4741,-10.25037 6.06086,-21.83847 -0.41281,-11.57616 -2.22566,-15.89957 -7.85832,-18.74102 -6.53689,-3.29759 -15.03373,-1.37834 -19.22345,4.34215 -2.83163,3.8662 -4.3085,16.27498 -2.92834,24.60401 1.82321,11.00269 5.81267,14.62547 15.44925,14.02929 3.80029,-0.23511 6.69556,-1.05122 8.5,-2.39596 z M 143.5625,881.87932 c 0,-0.27263 1.61898,-7.13513 3.59773,-15.25 3.78596,-15.52621 13.91171,-47.20644 20.21759,-63.25432 l 3.73294,-9.5 8.12832,-0.28887 8.12832,-0.28886 1.60115,4.28886 c 5.87846,15.74614 23.33699,73.63502 24.2781,80.50117 l 0.5877,4.2877 h -7.01337 -7.01336 l -2.87256,-11.75 -2.87256,-11.75 -15.66417,-0.27496 -15.66417,-0.27495 -1.60051,7.27495 c -0.88028,4.00123 -2.08878,9.41246 -2.68557,12.02496 l -1.08506,4.75 h -6.90026 c -3.79514,0 -6.90026,-0.22306 -6.90026,-0.49568 z M 185.26784,828.375 c -3.31557,-11 -6.3235,-20 -6.68429,-20 -0.52712,0 -10.02994,28.61089 -12.53828,37.75 -0.61732,2.24919 -0.6129,2.25 12.31667,2.25 h 12.93422 z m 42.29466,48.5 v -5.5 h 9 9 v -21.5 -21.5 h -8.5 -8.5 v -5.48399 -5.48398 l 15,0.0283 15,0.0283 v 26.95568 26.95569 h 6.5 6.5 v 5.5 5.5 h -22 -22 z m 50,0 v -5.5 h 9 9 l 0.002,-33.75 0.002,-33.75 h -8.61888 -8.61888 l -0.13264,-5.25074 -0.13264,-5.25073 15.75,7.3e-4 15.74904,7.4e-4 v 39 39 h 7.36916 7.36916 l 0.61983,3.75 c 1.30692,7.90683 3.42312,7.25 -23.35815,7.25 h -24 z m 511,0 v -5.5 h 8.5 8.5 v -21.5 -21.5 l -8.75,10e-4 -8.75,10e-4 0.33727,-5.41023 0.33726,-5.41023 15.41274,-0.1312 15.41273,-0.13047 v 27.04006 27.04007 h 7.79778 7.79779 l -0.0478,5.49675 -0.0478,5.49674 -23.25,0.003 -23.24997,0.004 z M 246.82387,806.84552 c -4.56912,-3.20034 -4.71079,-13.08927 -0.22193,-15.49163 3.41554,-1.82794 9.44073,-1.16112 11.75357,1.30078 3.96175,4.21709 3.00267,11.74039 -1.81422,14.2313 -3.68318,1.90465 -6.95988,1.89101 -9.71742,-0.0405 z m 559.37349,-0.5431 c -2.20958,-1.73805 -2.63486,-2.8679 -2.63486,-7 0,-6.34952 2.32908,-8.92742 8.06574,-8.92742 5.53607,0 7.66514,1.3658 8.85681,5.68165 2.4694,8.94346 -7.16243,15.8505 -14.28769,10.24577 z M 494.0625,697.42404 c -11.23849,-1.13621 -15.81287,-1.88545 -25.24347,-4.13463 C 410.03838,679.27036 360.46522,632.56785 338.88019,570.875 328.36365,540.81736 324.13585,514.87217 322.34775,469.41856 c -1.01583,-25.82256 -1.44758,-30.70589 -2.8377,-32.09601 -8.47078,-8.47078 -19.25841,-33.3617 -21.43037,-49.44755 -0.14852,-1.1 -0.83262,-5.825 -1.52022,-10.5 -1.89175,-12.86213 -1.64188,-39.03659 0.448,-46.9286 4.27238,-16.13376 12.22643,-24.9797 26.15601,-29.0889 l 4.10096,-1.20977 0.65155,-12.63637 c 2.19743,-42.61786 2.567,-46.6728 5.14707,-56.47387 4.99301,-18.96728 13.3655,-36.58285 25.08826,-52.78523 28.87998,-39.91592 67.97486,-66.38749 113.41119,-76.79197 11.92604,-2.73095 14.51766,-3.033601 32,-3.736984 42.88953,-1.725614 82.84134,10.721684 119.2391,37.149884 11.38745,8.26836 33.84714,30.98588 42.01945,42.50181 15.98645,22.52715 26.46846,50.05414 28.17848,74 0.5403,7.56583 1.91409,45.02349 1.76883,48.22862 -0.0541,1.19404 1.1448,2.05799 3.87676,2.79363 16.61885,4.47499 22.82596,11.69147 26.50553,30.81572 2.62876,13.66276 1.37253,43.06088 -2.61356,61.16203 -3.3064,15.01462 -11.48422,33.54433 -18.36969,41.62299 l -3.3044,3.87701 -0.57748,25.5 c -0.58324,25.75469 -1.27125,33.88772 -4.86417,57.5 -7.9438,52.20573 -30.96107,98.62115 -63.65129,128.35582 -26.59312,24.18882 -56.47224,38.92213 -90.34261,44.5477 -11.51611,1.91272 -36.22966,2.77131 -47.36495,1.64552 z M 468.56897,567.125 c 2.18448,-1.48841 4.73572,-5.06951 7.53726,-10.57982 7.11599,-13.99632 11.89936,-17.44065 26.74247,-19.25626 16.68647,-2.04109 31.33785,1.83784 37.58405,9.95032 1.44636,1.87851 4.42975,6.84004 6.62975,11.02562 4.97358,9.46242 7.70162,11.10634 18.43428,11.10859 9.42202,0.002 14.4975,-2.2707 18.35934,-8.22082 6.10652,-9.4086 8.40274,-24.44281 5.17848,-33.9055 -3.16647,-9.29306 -12.59834,-17.07596 -27.79686,-22.93713 -19.01972,-7.33477 -34.06602,-9.40953 -44.42524,-6.12585 -6.23041,1.97492 -6.26959,1.97492 -12.5,-7.1e-4 -9.30722,-2.95125 -22.76352,-1.329 -40.00267,4.82262 -17.78218,6.34539 -27.89498,14.27597 -31.30822,24.55228 -3.35304,10.09504 -0.15327,28.24918 6.339,35.9648 3.79025,4.50446 7.55688,5.76828 17.32401,5.81272 7.31495,0.0333 9.09624,-0.29754 11.90435,-2.21086 z m -71.4818,-46.48287 c 5.87695,-20.21599 21.85502,-42.17086 39.75651,-54.62796 9.89542,-6.88591 24.22838,-14.5039 33.49322,-17.80169 3.75714,-1.33735 9.09151,-2.17483 15.51594,-2.43595 8.56161,-0.34799 10.79751,-0.0651 17.8153,2.25434 7.66836,2.53442 8.17566,2.58041 11.41641,1.03501 5.1582,-2.45978 15.91749,-4.00092 23.33238,-3.34209 18.06977,1.60554 44.79296,15.90383 60.93994,32.60602 11.54079,11.93763 21.42984,28.15019 25.93996,42.52714 l 1.76567,5.62846 4.5,-0.61928 c 6.17666,-0.85003 15.90912,-5.51079 20.87412,-9.99637 11.26242,-10.17492 20.22744,-28.64659 26.20576,-53.99476 2.76244,-11.71276 2.75137,-11.662 4.57106,-20.96522 1.28105,-6.54946 2.20594,-8.70165 5.20352,-12.10849 5.21984,-5.93251 12.59672,-20.48726 15.54598,-30.67259 5.14658,-17.77379 7.37857,-47.94281 4.69179,-63.41729 -1.65168,-9.51285 -3.06887,-10.77265 -11.36907,-10.10639 -7.8704,0.63176 -12.48477,2.93685 -14.18566,7.0864 -0.71771,1.75097 -2.74829,9.68301 -4.5124,17.62676 -5.32541,23.98028 -10.09464,35.27298 -18.37625,43.51179 -10.3645,10.31094 -19.8505,12.6925 -51.14885,12.84149 -25.16098,0.11978 -34.53326,-1.21832 -45.15346,-6.44662 -13.84044,-6.81363 -24.99552,-23.43361 -31.4449,-46.84984 -1.74205,-6.325 -4.00178,-12.68632 -5.02161,-14.13626 -2.77469,-3.94491 -8.98671,-6.02191 -17.30386,-5.78559 -10.98809,0.31222 -15.59634,3.54312 -18.09921,12.68958 -6.13449,22.41773 -12.78756,36.19771 -21.92334,45.40806 -10.19508,10.27829 -21.78455,14.20761 -45.55362,15.44459 -10.09934,0.52558 -31.82845,-0.61581 -40.5,-2.1274 -15.46345,-2.69552 -27.0901,-13.31624 -33.38109,-30.49298 -2.13169,-5.82029 -5.78417,-20.03722 -8.67411,-33.76312 -1.13149,-5.37404 -2.52341,-9.10867 -3.98106,-10.6815 -2.80622,-3.02797 -9.00559,-4.7471 -15.70848,-4.35607 -4.70218,0.2743 -5.33441,0.60782 -7.20487,3.80069 -1.90265,3.24781 -2.04476,5.04914 -1.97232,25 0.12725,35.04318 4.75103,52.9007 18.69232,72.1916 5.2135,7.21405 5.68784,8.36266 7.63993,18.5 3.65437,18.97739 4.45705,22.30542 8.21548,34.06261 8.64311,27.03758 22.07226,43.02621 39.60867,47.15774 7.61114,1.79316 7.96783,1.62394 9.7902,-4.64482 z m 48.759,-131.24221 c 17.19043,-5.62596 27.14825,-20.73545 32.32937,-49.05496 1.57319,-8.5989 1.57376,-9.53604 0.009,-14.5003 -4.06722,-12.90271 -15.49655,-16.16053 -60.12196,-17.1372 -35.25648,-0.77161 -54.33364,1.75114 -57.46327,7.5989 -1.5228,2.8454 -1.19766,25.3295 0.52183,36.08572 2.72028,17.01653 7.12239,26.46828 15.19524,32.62565 6.21902,4.7434 13.58133,6.46994 30.7462,7.21029 18.91549,0.81586 30.15321,-0.004 38.78367,-2.8281 z m 175.29664,2.92994 c 10.16058,-0.82506 14.08614,-1.59057 18.6427,-3.63543 15.05524,-6.75639 22.04779,-23.2825 23.40683,-55.31943 0.58841,-13.87065 0.5206,-14.61839 -1.56231,-17.22758 -1.33442,-1.67159 -4.18868,-3.32954 -7.37247,-4.28243 -10.68953,-3.19934 -48.37803,-4.49968 -71.69506,-2.47364 -15.36016,1.33466 -18.10324,1.77174 -25.54546,4.0704 -11.05478,3.41448 -15.53916,11.68343 -13.39421,24.69817 1.87788,11.39428 4.97215,21.38083 9.09388,29.34995 7.727,14.93966 17.41174,21.49169 36.03502,24.37884 10.63486,1.64871 16.53118,1.72902 32.39108,0.44115 z M 533.5625,310.00411 c 1.375,-0.74721 5.2,-3.0104 8.5,-5.0293 11.44855,-7.00411 25.18332,-9.36998 59.62407,-10.2705 21.36646,-0.55866 61.64732,0.72978 72.25188,2.31108 l 3.87595,0.57796 -0.66728,-20.85917 c -0.367,-11.47255 -1.13751,-25.09388 -1.71224,-30.26962 -6.20719,-55.8985 -56.06615,-107.79872 -121.87238,-126.8619 -13.50851,-3.91324 -20.4319,-4.99741 -37,-5.79405 -27.9469,-1.34377 -52.63757,4.30226 -81.16476,18.56001 -18.49226,9.24234 -33.41329,20.53274 -49.97056,37.81158 -18.58782,19.39789 -30.01875,39.38215 -35.94218,62.83633 -2.56852,10.17023 -3.05104,14.5565 -4.11507,37.40752 -0.66295,14.23749 -1.00312,26.08859 -0.75594,26.33577 0.24718,0.24718 5.84922,-0.0341 12.44897,-0.625 6.59975,-0.59093 28.19954,-1.08786 47.99954,-1.10428 49.09123,-0.0407 63.02359,2.06608 78.05526,11.80309 l 6.94474,4.49857 20.5,0.0152 c 15.40404,0.0114 21.12146,-0.32248 23,-1.34333 z"
       id="path31" />
  </g>
</svg>
